# xmcd CD database file
#
# Track frame offsets:
#	150
#	19156
#	38795
#	57076
#	77225
#	92593
#	123322
#	153579
#	180919
#	207599
#	224645
#	239497
#	267221
#
# Disc length: 3941 seconds
#
# Revision: 0
# Processed by: cddbd v1.5PL3 Copyright (c) Steve Scherf et al.
# Submitted via: CDex 1.51
#
DISCID=b30f630d
DTITLE=Ian Shaw - A World Still Turning
DYEAR=2003
DGENRE=Jazz
TTITLE0=Alone Again.  Naturally
TTITLE1=We All Fall in Love Sometimes
TTITLE2=An Occasional Dream
TTITLE3=Peace
TTITLE4=Soon as the Weather Breaks
TTITLE5=This Is Always
TTITLE6=Rockabye
TTITLE7=Don't Ask Why
TTITLE8=Speak Low
TTITLE9=Gotta Serve Somebody
TTITLE10=I'm Glad There Is You
TTITLE11=Guilty
TTITLE12=The Tourist
EXTD=YEAR: 2003
EXTT0=
EXTT1=
EXTT2=
EXTT3=
EXTT4=
EXTT5=
EXTT6=
EXTT7=
EXTT8=
EXTT9=
EXTT10=
EXTT11=
EXTT12=
PLAYORDER=
